<svg width="302" height="300" viewBox="0 0 302 300" fill="none" xmlns="http://www.w3.org/2000/svg">
<g clip-path="url(#clip0_263_14)">
<path d="M144.815 0.307905C144.91 0.295993 145.004 0.279231 145.099 0.272172C150.124 -0.0926805 155.403 0.120406 160.433 0.428788C162.129 0.532906 163.823 0.6657 165.514 0.827171C167.206 0.988641 168.894 1.17879 170.579 1.39761C172.264 1.61643 173.944 1.86379 175.621 2.13967C177.297 2.41556 178.969 2.71996 180.635 3.05291C182.302 3.38555 183.962 3.74643 185.615 4.13555C187.269 4.52437 188.916 4.94129 190.556 5.38629C192.196 5.83129 193.828 6.30408 195.451 6.80467C197.075 7.30496 198.69 7.83276 200.296 8.38805C201.901 8.94335 203.497 9.5257 205.083 10.1351C206.669 10.7445 208.245 11.3807 209.809 12.0436C211.373 12.7066 212.926 13.396 214.467 14.1119C216.008 14.8275 217.536 15.5691 219.052 16.3367C220.568 17.1044 222.07 17.8975 223.559 18.716C225.048 19.5345 226.523 20.3782 227.983 21.247C229.443 22.1156 230.888 23.0088 232.318 23.9267C233.748 24.8444 235.162 25.7861 236.56 26.752C240.424 29.4503 244.242 32.2998 247.821 35.3695C251.942 38.9042 255.827 42.7156 259.92 46.286C252.904 52.4488 245.366 57.9057 238.154 63.8241L176.487 114.527C178.594 115.545 180.883 116.317 183.057 117.193C186.141 118.429 189.191 119.745 192.207 121.14L243.566 78.9216C252.193 71.8623 260.311 64.2401 269.607 58.0522C289.579 83.9475 300.405 113.292 301.469 146.022C302.832 187.937 287.846 224.838 259.243 255.195C237.496 278.276 206.694 293.099 175.599 298.207C168.202 299.363 160.762 300.026 153.278 300.195C107.764 299.676 73.6739 285.452 40.5265 254.224C56.982 241.373 72.9089 227.76 89.022 214.478L112.09 195.46C116.434 191.876 120.906 188.369 125.099 184.611C120.461 182.043 115.665 179.761 110.943 177.353C90.7642 193.625 70.7392 210.085 50.8677 226.731C44.393 232.082 38.0026 237.535 31.4224 242.757C13.1264 219.899 3.02434 192.382 0.484929 163.312C0.382576 162.102 0.295075 160.89 0.222428 159.678C0.149487 158.466 0.0913968 157.253 0.0481615 156.039C0.00492624 154.825 -0.0234531 153.611 -0.0369825 152.396C-0.050806 151.182 -0.049775 149.967 -0.0338926 148.753C-0.0177161 147.538 0.013019 146.324 0.0583131 145.11C0.103901 143.897 0.164197 142.684 0.239197 141.472C0.314197 140.259 0.403896 139.048 0.508308 137.838C0.61272 136.628 0.731843 135.419 0.865667 134.212C0.999785 133.005 1.14846 131.8 1.3117 130.596C1.47493 129.392 1.65287 128.191 1.84552 126.992C2.03787 125.793 2.24493 124.596 2.4667 123.401C2.68817 122.207 2.92434 121.016 3.17523 119.827C3.42581 118.639 3.69081 117.454 3.97022 116.272C4.24993 115.09 4.5439 113.912 4.85214 112.737C5.16008 111.562 5.48243 110.391 5.81919 109.224C6.15596 108.057 6.50684 106.894 6.87184 105.736C7.23684 104.578 7.61596 103.424 8.0092 102.274C8.40243 101.125 8.80949 99.981 9.23037 98.8416C9.65125 97.7025 10.0861 96.5685 10.5349 95.4397C10.9835 94.3111 11.4457 93.188 11.9215 92.0704C12.3974 90.953 12.887 89.8416 13.3902 88.736C13.8932 87.6304 14.4095 86.5311 14.9392 85.4382C15.4689 84.3453 16.012 83.2589 16.5685 82.1792C17.1246 81.0995 17.6939 80.0267 18.2763 78.9608C18.8586 77.895 19.4538 76.8364 20.0617 75.7853C20.6699 74.7338 21.2908 73.69 21.9243 72.6538C22.5579 71.6173 23.2039 70.5888 23.8624 69.5682C24.521 68.5479 25.1918 67.5355 25.8751 66.5311C26.5583 65.527 27.2538 64.5313 27.9614 63.5439C28.6688 62.5569 29.3882 61.5785 30.1196 60.6088C30.8508 59.6388 31.5938 58.678 32.3485 57.7266C33.1032 56.7748 33.8693 55.8325 34.647 54.8995C35.2746 54.1389 35.9096 53.3847 36.552 52.6367C37.1946 51.8885 37.8445 51.1467 38.5015 50.4114C39.1586 49.6764 39.8229 48.9478 40.4943 48.2254C41.1658 47.5034 41.8443 46.7881 42.5299 46.0795C43.2155 45.3707 43.9082 44.6688 44.6079 43.9738C45.3073 43.2788 46.0135 42.5907 46.7264 41.9095C47.4396 41.2283 48.1593 40.5544 48.8855 39.8876C49.612 39.2205 50.3449 38.5608 51.0843 37.9085C51.8237 37.2561 52.5695 36.6111 53.3215 35.9735C54.0739 35.3358 54.8323 34.7056 55.5967 34.0826C56.3614 33.46 57.1321 32.845 57.9089 32.2376C58.6857 31.63 59.4683 31.0301 60.2568 30.4381C61.0454 29.846 61.8396 29.2617 62.6396 28.6853C63.4396 28.1091 64.2454 27.5407 65.0568 26.9801C65.8683 26.4198 66.6851 25.8675 67.5071 25.3231C68.3295 24.7786 69.157 24.2425 69.9896 23.7145C70.8226 23.1866 71.6605 22.6669 72.5035 22.1554C73.3467 21.6439 74.1948 21.1408 75.0477 20.6461C75.9007 20.1514 76.7585 19.6653 77.6211 19.1876C78.4838 18.71 79.3511 18.2407 80.2232 17.7798C81.0949 17.3192 81.9713 16.8673 82.8521 16.4241C83.7327 15.9808 84.6177 15.5463 85.5071 15.1204C86.3965 14.6945 87.2901 14.2775 88.1877 13.8692C89.0854 13.461 89.987 13.0616 90.8926 12.671C91.7982 12.2807 92.7074 11.8994 93.6204 11.527C94.5333 11.1544 95.4499 10.7908 96.3702 10.4364C97.2905 10.0823 98.2142 9.73717 99.1413 9.401C100.068 9.06482 100.998 8.73791 101.932 8.42026C102.865 8.10232 103.802 7.79379 104.742 7.49467C105.681 7.19526 106.623 6.90526 107.569 6.62467C108.514 6.34408 109.462 6.07276 110.413 5.8107C111.363 5.54894 112.317 5.29643 113.272 5.0532C123.681 2.49437 134.156 1.23217 144.815 0.307905Z" fill="#252525"/>
<path d="M83.9321 241.372C88.3606 244.574 92.6171 247.838 97.2371 250.792C116.083 262.841 137.494 270.855 159.907 272.501C169.888 273.235 180.797 272.858 190.583 270.61C205.264 267.237 220.593 258.698 231.477 248.329C233.669 246.242 235.547 243.993 237.343 241.566C238.594 239.873 240.809 236.038 242.283 234.874C242.382 234.796 242.486 234.724 242.588 234.649C241.407 238.459 238.836 242.177 236.454 245.341C235.96 246.006 235.457 246.663 234.945 247.314C234.432 247.964 233.91 248.607 233.379 249.243C232.849 249.879 232.309 250.507 231.761 251.127C231.212 251.748 230.655 252.361 230.089 252.965C229.523 253.57 228.949 254.166 228.366 254.755C227.784 255.343 227.193 255.923 226.594 256.495C225.994 257.067 225.387 257.63 224.772 258.185C224.157 258.74 223.534 259.285 222.904 259.822C222.273 260.359 221.635 260.887 220.99 261.406C220.345 261.925 219.692 262.435 219.032 262.935C218.373 263.436 217.706 263.927 217.032 264.409C216.358 264.89 215.678 265.362 214.991 265.825C214.304 266.287 213.61 266.74 212.91 267.183C212.21 267.625 211.504 268.058 210.792 268.481C210.08 268.904 209.362 269.316 208.639 269.719C207.915 270.122 207.186 270.514 206.451 270.896C178.135 285.753 143.489 286.5 113.386 276.976C111.38 276.36 109.389 275.701 107.412 274.999C105.435 274.297 103.475 273.552 101.53 272.764C99.5855 271.977 97.659 271.147 95.7507 270.276C93.8422 269.405 91.9535 268.492 90.0847 267.539C88.2159 266.585 86.3687 265.592 84.5431 264.558C82.7175 263.524 80.9153 262.451 79.1365 261.339C77.3577 260.227 75.6037 259.077 73.8746 257.888C72.1457 256.7 70.4435 255.474 68.7679 254.212C73.1572 249.44 78.8771 245.437 83.9321 241.372Z" fill="#CAACF9"/>
<path d="M62.9065 63.9366C73.9717 44.1181 94.0942 31.1387 115.606 25.0434C116.448 24.8001 117.293 24.5656 118.14 24.3397C118.988 24.1138 119.837 23.8966 120.689 23.6881C121.54 23.4795 122.394 23.2798 123.25 23.089C124.105 22.8981 124.963 22.7159 125.823 22.5423C126.682 22.3691 127.543 22.2047 128.406 22.0491C129.269 21.8935 130.133 21.7467 130.999 21.6088C131.865 21.4709 132.732 21.3419 133.601 21.2219C134.469 21.1016 135.339 20.9904 136.21 20.8884C137.081 20.786 137.952 20.6926 138.825 20.6082C139.698 20.5241 140.571 20.4488 141.446 20.3823C142.32 20.3159 143.195 20.2585 144.07 20.2103C144.946 20.1617 145.822 20.1222 146.698 20.0916C147.574 20.0613 148.45 20.04 149.327 20.0276C150.204 20.015 151.081 20.0114 151.958 20.017C152.834 20.0226 153.711 20.0372 154.587 20.0607C155.464 20.0842 156.34 20.1167 157.216 20.1582C158.092 20.2 158.967 20.2506 159.842 20.31C160.716 20.3694 161.59 20.4379 162.464 20.5156C163.337 20.5929 164.21 20.6792 165.081 20.7745C165.953 20.8701 166.824 20.9745 167.693 21.0878C168.562 21.201 169.431 21.3232 170.298 21.4544C171.164 21.5853 172.03 21.7251 172.894 21.8739C173.758 22.0228 174.621 22.1806 175.482 22.3473C176.342 22.5138 177.201 22.6891 178.058 22.8732C178.916 23.0576 179.771 23.2507 180.624 23.4525C181.478 23.6542 182.329 23.8647 183.177 24.0838C184.027 24.3032 184.873 24.5312 185.717 24.7676C186.562 25.0044 187.403 25.2497 188.243 25.5035C189.082 25.7573 189.918 26.0198 190.752 26.291C191.586 26.5622 192.417 26.8417 193.245 27.1297C194.073 27.4179 194.898 27.7145 195.72 28.0195C196.542 28.3248 197.361 28.6384 198.177 28.9601C204.581 31.5637 210.784 34.5814 216.786 38.0135C221.206 40.4854 225.988 43.4585 229.598 47.0104C218.162 55.4047 207.563 64.8529 196.31 73.4788C191.641 70.0447 186.779 66.6454 181.52 64.17C169.857 58.68 155.169 57.217 142.483 59.1591C131.858 60.7862 121.328 65.3285 114.882 74.2526C111.049 79.5595 108.816 85.6866 109.938 92.2734C111.107 99.1319 115.419 104.178 120.989 108.06C128.603 113.369 137.363 116.828 145.721 120.753L182.042 138.123C192.878 143.321 203.925 148.411 213.974 155.053C230.385 165.899 243.645 181.993 247.213 201.753C249.109 212.251 247.801 225.251 242.588 234.649C242.486 234.724 242.382 234.796 242.283 234.874C240.809 236.038 238.594 239.873 237.343 241.566C235.547 243.993 233.669 246.242 231.477 248.329C220.593 258.698 205.264 267.237 190.583 270.61C180.797 272.857 169.888 273.235 159.908 272.501C137.494 270.855 116.083 262.841 97.2371 250.792C92.6171 247.837 88.3606 244.574 83.9321 241.372C90.8899 235.527 98.0696 229.903 105.147 224.201C116.382 233.96 132.392 241.942 147.289 243.31C160.893 244.558 174.627 241.787 185.33 232.893C186.756 231.264 188.208 229.645 189.429 227.855C192.764 222.967 194.598 216.949 193.459 211.046C192.259 204.826 188.13 199.245 183.298 195.31C174.318 187.993 163.485 183.849 153.179 178.835L121.842 163.451C109.32 157.329 96.608 151.237 85.0364 143.408C70.7762 133.76 58.2984 121.16 54.9772 103.599C52.8883 92.5531 54.878 81.2373 59.2822 71.0078C60.3164 68.6056 61.4308 66.0962 62.9065 63.9366Z" fill="#FEFEFE"/>
<path d="M185.33 232.893C186.756 231.264 188.208 229.645 189.429 227.855C192.764 222.967 194.598 216.949 193.459 211.046C192.259 204.826 188.13 199.245 183.298 195.31C174.318 187.993 163.485 183.849 153.179 178.835L121.842 163.451C109.32 157.329 96.608 151.237 85.0364 143.408C70.7762 133.76 58.2984 121.16 54.9772 103.599C52.8883 92.5531 54.878 81.2373 59.2822 71.0078C60.3164 68.6055 61.4308 66.0961 62.9065 63.9366C62.9175 64.0866 62.9325 64.2366 62.94 64.3866C63.0459 66.5351 62.0466 69.0194 61.5816 71.1203C61.159 73.0297 60.9049 75.0158 60.7593 76.9654C59.6096 92.3307 68.1075 107.114 78.8034 117.493C88.3606 126.768 99.6168 133.469 111.269 139.747C123.798 146.497 136.673 152.379 149.535 158.448C155.516 161.27 161.358 164.404 167.248 167.408C177.574 172.673 189.173 178.234 197.463 186.548C202.183 191.283 205.111 197.101 205.18 203.868C205.264 211.986 201.161 219.324 195.554 224.95C193.157 227.355 188.541 232.182 185.33 232.893Z" fill="#CAACF9"/>
</g>
<defs>
<clipPath id="clip0_263_14">
<rect width="301.765" height="300" fill="white"/>
</clipPath>
</defs>
</svg>
